<?xml version="1.0" encoding="UTF-8"?>
<svg version="1.1" xmlns="http://www.w3.org/2000/svg" width="3000" height="2000">
<path d="M0 0 C1.07975098 0.52062012 2.15950195 1.04124023 3.27197266 1.57763672 C21.01042024 10.18388456 38.36707115 19.41674316 55.1484375 29.77734375 C56.65132324 30.69580078 56.65132324 30.69580078 58.18457031 31.6328125 C60.10303283 32.81026807 62.01184492 34.00363741 63.90917969 35.21484375 C64.76672852 35.74078125 65.62427734 36.26671875 66.5078125 36.80859375 C67.25691895 37.28095459 68.00602539 37.75331543 68.77783203 38.23999023 C71.02715864 39.2429812 71.02715864 39.2429812 73.47045898 38.31420898 C76.01444905 36.99249308 78.50129995 35.63078984 80.96484375 34.1640625 C81.9185083 33.60041992 82.87217285 33.03677734 83.85473633 32.45605469 C84.87204834 31.85180664 85.88936035 31.24755859 86.9375 30.625 C97.65354854 24.31847656 108.47419258 18.25080619 119.43310547 12.37744141 C121.87778035 11.06558525 124.31606764 9.74247175 126.75390625 8.41796875 C193.91340122 -27.81243841 268.38490709 -50.05971996 344 -59 C345.08958008 -59.13277344 346.17916016 -59.26554687 347.30175781 -59.40234375 C421.56494215 -68.04493729 501.7089444 -56.90828799 569.52832031 -25.15283203 C571.93204931 -24.03169332 574.3495677 -22.94786862 576.7734375 -21.87109375 C606.94777538 -8.27502532 634.70546787 10.77585235 660 32 C660.9590625 32.7734375 661.918125 33.546875 662.90625 34.34375 C671.41176154 41.30460673 679.1739624 48.98561796 686.9375 56.75 C687.48174622 57.29333984 688.02599243 57.83667969 688.58673096 58.39648438 C694.60438229 64.41527013 700.53002387 70.4714044 706 77 C706.50281494 77.59603027 707.00562988 78.19206055 707.52368164 78.80615234 C763.67794473 145.94455573 797.13531652 227.57198936 817.3125 348.0625 C817.45993652 349.33005127 817.60737305 350.59760254 817.75927734 351.90356445 C820.3836188 376.3610116 821.35311228 400.78775968 821.25 425.375 C821.24663218 426.71850529 821.24350196 428.0620112 821.24060059 429.40551758 C821.19193135 449.0120933 820.87473688 468.47318896 819 488 C818.86941754 489.42216622 818.73922589 490.84436836 818.609375 492.26660156 C814.14285304 540.56021185 805.33036774 588.20708937 792.55023193 634.98468018 C792.01942089 636.92886762 791.49326408 638.87432394 790.96728516 640.81982422 C778.5104261 686.5351122 761.82541876 730.9904071 742 774 C741.69622437 774.65997986 741.39244873 775.31995972 741.07946777 775.99993896 C714.68968716 833.29596181 683.05147539 887.90821901 646 939 C645.4436084 939.76747559 644.8872168 940.53495117 644.31396484 941.32568359 C636.75598825 951.72180855 629.05201922 961.98130759 621 972 C620.4858252 972.6403418 619.97165039 973.28068359 619.44189453 973.94042969 C613.34669401 981.51686098 607.18513261 989.03109487 600.87182617 996.42700195 C598.12090171 999.65348118 595.45187208 1002.93207479 592.8125 1006.25 C588.1611473 1011.97409711 583.11140944 1017.30011095 578.02270508 1022.63574219 C574.65608846 1026.16630788 571.35073612 1029.72722255 568.12890625 1033.390625 C561.50158364 1040.78755842 554.40939551 1047.73939107 547.37963867 1054.75073242 C544.93618078 1057.18881632 542.49813193 1059.63221789 540.06054688 1062.07617188 C538.48729979 1063.64875833 536.91374263 1065.22103464 535.33984375 1066.79296875 C534.62191147 1067.51292526 533.90397919 1068.23288177 533.16429138 1068.97465515 C529.15857191 1072.96210406 525.06071627 1076.78178623 520.77304077 1080.46507263 C518.00717939 1082.85948815 515.35529606 1085.37265192 512.6875 1087.875 C507.8935086 1092.33504356 502.97489004 1096.56309553 497.8671875 1100.6640625 C494.58420303 1103.33875557 491.38760296 1106.10234125 488.1875 1108.875 C481.29652337 1114.81465927 474.20761531 1120.45123985 467 1126 C465.80963135 1126.92135742 465.80963135 1126.92135742 464.59521484 1127.86132812 C454.02229627 1136.03830465 443.39183502 1144.0514157 432.27636719 1151.47753906 C429.64975474 1153.23424811 427.03225165 1155.00420036 424.4140625 1156.7734375 C397.78196045 1174.71317734 370.39772425 1190.9402056 341.80566406 1205.56347656 C339.96938381 1206.50366739 338.13530089 1207.44816531 336.30371094 1208.39746094 C268.49732063 1243.53508651 193.94207265 1264.93985398 118 1272 C116.36333374 1272.15686279 116.36333374 1272.15686279 114.69360352 1272.31689453 C100.89592279 1273.4398331 87.02105455 1273.24595173 73.1875 1273.25 C72.15055182 1273.25066278 72.15055182 1273.25066278 71.09265518 1273.25133896 C49.5805125 1273.25854372 28.3538583 1272.83379311 7 1270 C5.67324156 1269.83152274 4.34641708 1269.66356478 3.01953125 1269.49609375 C-81.3422854 1258.69936197 -162.89542891 1228.05160688 -236 1185 C-236.93618164 1184.44876465 -237.87236328 1183.8975293 -238.83691406 1183.32958984 C-259.86505217 1170.8757882 -280.19454409 1157.31361002 -300 1143 C-300.76119141 1142.45134277 -301.52238281 1141.90268555 -302.30664062 1141.33740234 C-312.89841083 1133.68275505 -323.20695624 1125.76294003 -333.27197266 1117.42822266 C-335.73154178 1115.39537731 -338.21088815 1113.38702377 -340.6875 1111.375 C-349.83202349 1103.87566814 -358.82327248 1096.24943417 -367.53515625 1088.25 C-369.58115954 1086.38233297 -371.65017157 1084.55630403 -373.75 1082.75 C-385.28124849 1072.69950212 -396.19700651 1061.96770053 -406.99169922 1051.13867188 C-409.023262 1049.10167579 -411.06021836 1047.07018049 -413.09765625 1045.0390625 C-414.41959207 1043.71646683 -415.74121817 1042.39356151 -417.0625 1041.0703125 C-417.65740234 1040.47743439 -418.25230469 1039.88455627 -418.86523438 1039.27371216 C-422.53133643 1035.58739643 -426.00678296 1031.77894287 -429.39907837 1027.83903503 C-431.97607898 1024.87874371 -434.68214209 1022.04196237 -437.375 1019.1875 C-442.09747432 1014.14568357 -446.5665215 1008.97635433 -450.88671875 1003.58203125 C-453.03619026 1000.95578232 -455.27460088 998.44366547 -457.5625 995.9375 C-461.93668875 991.12513691 -465.99141018 986.11843618 -470 981 C-470.82898319 979.95147181 -471.65843404 978.90331325 -472.48828125 977.85546875 C-484.36201329 962.83868999 -495.92673633 947.61794107 -507 932 C-507.63873047 931.09942871 -508.27746094 930.19885742 -508.93554688 929.27099609 C-517.48448172 917.18207395 -525.75395815 904.97487656 -533.53027344 892.37451172 C-535.04261469 889.93115109 -536.57059758 887.49813491 -538.1015625 885.06640625 C-565.65738837 841.1533949 -590.18111934 794.93090872 -610 747 C-610.2922345 746.29627258 -610.58446899 745.59254517 -610.88555908 744.86749268 C-626.67513188 706.79917487 -640.16006796 667.83286984 -650.49725342 627.92950439 C-651.2768466 624.9374831 -652.0806237 621.95192445 -652.87890625 618.96484375 C-663.98059634 576.72158367 -670.70332954 533.53142822 -674.80145264 490.08843994 C-674.98338164 488.17480182 -675.17318075 486.26191615 -675.36376953 484.34912109 C-679.45980446 441.84436522 -678.58523624 397.42049794 -674 355 C-673.92738953 354.31341309 -673.85477905 353.62682617 -673.77996826 352.91943359 C-667.06405099 289.68336463 -650.4758518 228.39309731 -623 171 C-622.58927246 170.1347168 -622.17854492 169.26943359 -621.75537109 168.37792969 C-606.76472674 136.94768623 -587.43477129 107.00097553 -564.49804688 80.76904297 C-563.35000033 79.41331525 -562.23166907 78.03237573 -561.12695312 76.64111328 C-555.43451447 69.49189721 -549.29799654 62.98848195 -542.81689453 56.55615234 C-541.12686758 54.87685572 -539.44782236 53.18711031 -537.76953125 51.49609375 C-531.88752427 45.6072528 -525.91347745 40.07286393 -519.37817383 34.90673828 C-517.02233928 33.01791087 -514.78763179 31.04023469 -512.5625 29 C-434.41666153 -40.90550401 -325.32189723 -64.47331886 0 0 Z M-385 105 C-385.65129883 105.34498535 -386.30259766 105.6899707 -386.97363281 106.04541016 C-420.36790657 123.84971945 -449.4340597 149.68944171 -472 180 C-472.47791992 180.63744141 -472.95583984 181.27488281 -473.44824219 181.93164062 C-485.52137438 198.15118143 -495.35262268 215.74731534 -504 234 C-504.34595215 234.71849121 -504.6919043 235.43698242 -505.04833984 236.17724609 C-530.31552337 288.92206661 -542.21732186 349.66798778 -543 408 C-543.02046387 409.30775391 -543.04092773 410.61550781 -543.06201172 411.96289062 C-544.12993126 486.93943262 -532.510956 560.06380855 -478 713 C-476.98307165 715.24999943 -475.9661446 717.49999944 -474.94921875 719.75 C-463.78165518 744.2883456 -451.5044888 768.10169683 -437.65234375 791.23925781 C-436.04023303 793.9327785 -434.44066608 796.63338716 -432.84375 799.3359375 C-416.01694016 827.72109915 -397.33291591 855.01007251 -377 881 C-376.10780585 882.15083467 -375.21588637 883.30188232 -374.32421875 884.453125 C-369.34443812 890.86087895 -364.25448694 897.15068008 -358.98022461 903.31860352 C-356.13499673 906.646228 -353.36283697 910.02019984 -350.625 913.4375 C-345.08352657 920.26088076 -339.03249451 926.61320133 -333 933 C-331.58888559 929.15069422 -332.39020608 926.1901134 -333.2578125 922.25390625 C-333.55492818 920.86511125 -333.85144937 919.47618896 -334.14746094 918.0871582 C-334.38668274 916.9846019 -334.38668274 916.9846019 -334.6307373 915.85977173 C-338.82422632 896.3689547 -341.81228455 876.81094999 -344 857 C-344.12535126 855.87830414 -344.12535126 855.87830414 -344.25323486 854.73394775 C-349.43363414 807.7343885 -348.90248469 758.99484719 -344 712 C-343.87271515 710.76745483 -343.87271515 710.76745483 -343.74285889 709.51000977 C-335.99243395 635.2196585 -318.02965027 561.62506342 -291 492 C-290.73227783 491.30878052 -290.46455566 490.61756104 -290.1887207 489.90539551 C-275.08864753 450.99535826 -257.63460414 413.10270169 -237.42431641 376.57958984 C-236.1217392 374.22048276 -234.83024855 371.855759 -233.54296875 369.48828125 C-222.24895629 348.80442497 -209.81212325 328.77174154 -197 309 C-195.96552734 307.40285156 -195.96552734 307.40285156 -194.91015625 305.7734375 C-192.97034839 302.82764613 -190.99634509 299.90758504 -189 297 C-188.45150391 296.20045898 -187.90300781 295.40091797 -187.33789062 294.57714844 C-172.71835214 273.31443107 -157.57469961 252.55319723 -141.16796875 232.6328125 C-139.72685627 230.88270474 -138.29190597 229.12750388 -136.86328125 227.3671875 C-128.27629728 216.79147655 -119.4238926 206.4679872 -110.21484375 196.4296875 C-108.35993183 194.39484585 -106.54571202 192.33678753 -104.75 190.25 C-94.29805131 178.26407082 -83.11322473 166.95062907 -71.85693359 155.7265625 C-69.60265829 153.47771206 -67.35386624 151.22347552 -65.10546875 148.96875 C-63.6461543 147.51009548 -62.18653015 146.05175073 -60.7265625 144.59375 C-60.06806305 143.93322632 -59.4095636 143.27270264 -58.73110962 142.59216309 C-54.81948886 138.69996238 -50.79381121 135.01895292 -46.57601929 131.45959473 C-44.88667955 130.06698697 -44.88667955 130.06698697 -44 128 C-120.48834667 89.9720871 -204.47757228 64.55944754 -385 105 Z M224 111 C222.89253418 111.49612793 221.78506836 111.99225586 220.64404297 112.50341797 C181.67521535 130.05154284 144.65037028 150.93911272 110 176 C108.74799805 176.90395508 108.74799805 176.90395508 107.47070312 177.82617188 C98.08241276 184.62458903 88.88174218 191.54943903 80 199 C78.14668577 200.50105309 76.29250268 202.001034 74.4375 203.5 C69.94652268 207.17210966 65.61316653 210.98546062 61.32421875 214.890625 C59.27957665 216.74626657 57.21215851 218.56756376 55.125 220.375 C37.63890316 235.63622567 19.70536397 251.4432132 4.640625 269.140625 C2.83852211 271.18300828 0.94061053 273.08901711 -1 275 C-4.21434731 278.1711603 -7.21750963 281.45582753 -10.16015625 284.87890625 C-12.19508819 287.22491058 -14.28290967 289.5173645 -16.375 291.8125 C-20.19597138 296.05088843 -23.84247331 300.39879103 -27.4296875 304.8359375 C-29.35180461 307.2128481 -31.29965269 309.56675943 -33.2578125 311.9140625 C-40.60282465 320.73196387 -47.67360735 329.69060635 -54.47265625 338.93554688 C-56.01910741 341.02582676 -57.58543449 343.09985796 -59.15625 345.171875 C-80.71528183 373.77567415 -100.06860428 404.34296036 -117.22753906 435.75634766 C-118.41710809 437.93329175 -119.61184343 440.10742011 -120.81152344 442.27880859 C-160.86089203 514.80840673 -190.0153303 594.37509671 -213 745 C-213.05784668 745.79760742 -213.11569336 746.59521484 -213.17529297 747.41699219 C-218.67871566 825.18345758 -209.08090117 907.31476072 -175 978 C-174.60844727 978.8240332 -174.21689453 979.64806641 -173.81347656 980.49707031 C-161.41249803 1006.50814777 -145.68315323 1030.24990983 -126.234375 1051.54296875 C-124.76874924 1053.15464463 -123.32006451 1054.78192582 -121.890625 1056.42578125 C-77.736805 1106.94484173 -9.47183222 1133.58049459 56.125 1138.75 C58.41566801 1138.85733416 60.70759271 1138.94042331 63 1139 C63.6492041 1139.02046387 64.2984082 1139.04092773 64.96728516 1139.06201172 C128.15037584 1140.8537047 191.90376969 1119.7838601 241 1080 C241.54978516 1079.55462891 242.09957031 1079.10925781 242.66601562 1078.65039062 C256.37148114 1067.44257626 269.21381294 1055.06488986 280 1041 C281.01356488 1039.71424583 282.02795096 1038.42913876 283.04296875 1037.14453125 C323.808824 985.15960314 345.42426359 921.47615339 354.3125 856.5625 C354.45985596 855.4892749 354.60721191 854.4160498 354.7590332 853.31030273 C357.5224915 831.38557183 358.38292164 809.39269665 358.3125 787.3125 C358.31034485 786.08087128 358.3081897 784.84924255 358.30596924 783.58029175 C358.11484342 714.95231195 346.11241064 648.41957826 325.5625 583.0625 C325.29924927 582.22323975 325.03599854 581.38397949 324.76477051 580.51928711 C324.0176469 578.14744755 323.26265954 575.77829807 322.50390625 573.41015625 C322.28031937 572.70246597 322.05673248 571.9947757 321.82637024 571.26564026 C320.817843 568.15410275 319.8291441 565.74371615 318 563 C316.906875 563.69222656 315.81375 564.38445312 314.6875 565.09765625 C302.51233323 572.80096816 290.30229172 580.44748094 278.08056641 588.07666016 C273.05253513 591.21589223 268.02634659 594.35807151 263 597.5 C261.00000915 598.75001464 259.00000914 600.00001462 257 601.25 C255.515 602.178125 255.515 602.178125 254 603.125 C227 620 200 636.875 173 653.75 C172.0090332 654.36939453 171.01806641 654.98878906 169.99707031 655.62695312 C168.00698236 656.87067704 166.01674914 658.11416852 164.02636719 659.35742188 C158.87346671 662.57650687 153.72353071 665.80019669 148.578125 669.03125 C147.51851562 669.69576172 146.45890625 670.36027344 145.3671875 671.04492188 C143.36623065 672.29990797 141.36615258 673.55629692 139.3671875 674.81445312 C116.25735557 689.29855647 116.25735557 689.29855647 103 688 C91.10035832 684.53062218 86.19518021 673.94790083 80.0625 664 C78.73318856 661.85800114 77.40375809 659.71607615 76.07421875 657.57421875 C75.3992334 656.48415527 74.72424805 655.3940918 74.02880859 654.27099609 C71.44768035 650.10950918 68.85005582 645.95848759 66.25073242 641.80834961 C64.38575318 638.82967458 62.52443306 635.8487427 60.6640625 632.8671875 C58.20764977 628.93037669 55.74295542 624.99891368 53.2734375 621.0703125 C52.09875755 619.19283394 50.92426992 617.31523504 49.75 615.4375 C49.21294434 614.58712158 48.67588867 613.73674316 48.12255859 612.8605957 C42.71744334 604.19130711 39.81477234 597.44907606 41 587 C43.85102623 575.39865425 54.44149934 569.81141827 64 564 C66.14595368 562.67727855 68.29178356 561.35435625 70.4375 560.03125 C71.52804687 559.36222656 72.61859375 558.69320313 73.7421875 558.00390625 C78.84601806 554.86449968 83.922147 551.68118458 89 548.5 C90.9998535 547.24976564 92.99985389 545.9997662 95 544.75 C95.99 544.13125 96.98 543.5125 98 542.875 C101 541 104 539.125 107 537.25 C107.9902417 536.63108887 108.9804834 536.01217773 110.00073242 535.37451172 C111.99825443 534.12608079 113.99581295 532.87770827 115.9934082 531.62939453 C121.03162434 528.48086882 126.06917728 525.33129107 131.10546875 522.1796875 C141.41280285 515.73099642 151.73147545 509.30171751 162.07373047 502.90917969 C171.72095842 496.94253353 181.33597169 490.92451891 190.95166016 484.90722656 C195.96658596 481.76958437 200.98337765 478.63492867 206 475.5 C208.00000915 474.25001463 210.00000914 473.00001463 212 471.75 C254 445.5 254 445.5 296 419.25 C297.4857251 418.3213916 297.4857251 418.3213916 299.00146484 417.37402344 C300.99650885 416.12716154 302.99162575 414.88041628 304.98681641 413.63378906 C310.06325476 410.46174053 315.13831313 407.28751971 320.2109375 404.109375 C329.53673863 398.26862546 338.86794808 392.43760303 348.25 386.6875 C348.9826709 386.23729492 349.7153418 385.78708984 350.47021484 385.32324219 C351.1452002 384.91106445 351.82018555 384.49888672 352.515625 384.07421875 C353.09602539 383.71932373 353.67642578 383.36442871 354.27441406 382.9987793 C360.51199826 379.38842885 366.96226764 378.12450666 374.125 379.625 C384.8180284 382.94501285 388.54753504 389.54228593 393.62841797 399.04589844 C395.40864713 402.47360445 397.15221333 405.91819591 398.875 409.375 C399.35255234 410.33092041 399.35255234 410.33092041 399.8397522 411.30615234 C436.04225878 483.99027324 462.8852274 562.19230117 484 679 C484.09947937 679.67832886 484.19895874 680.35665771 484.30145264 681.05554199 C485.7558747 691.01472823 486.9709877 700.98932303 488 711 C488.0751886 711.7205658 488.1503772 712.44113159 488.22784424 713.18353271 C493.13479405 760.78603153 493.47437611 810.43269868 488 858 C487.91514343 858.75577332 487.83028687 859.51154663 487.74285889 860.29022217 C485.51288146 880.09182114 482.37316649 899.61067027 478.14746094 919.08691406 C477.99717438 919.79216721 477.84688782 920.49742035 477.69204712 921.2240448 C477.28551896 923.12439037 476.86801153 925.02237789 476.44970703 926.92016602 C476.03609669 929.75279061 476.02880151 931.35071804 477 934 C483.1036444 927.46282572 489.02850156 920.86354157 494.63671875 913.890625 C496.79314579 911.25301176 499.00188904 908.67756696 501.23999023 906.10986328 C507.34274715 899.09835308 513.04164823 891.84363465 518.640625 884.42578125 C521.49257824 880.64970803 524.40671676 876.9265876 527.33642578 873.21069336 C533.73479244 865.07867153 539.78747837 856.79427049 545.53564453 848.19140625 C547.14059312 845.78960257 548.75582817 843.39487613 550.37109375 841 C592.13800783 778.89987584 625.67920069 712.7702935 650 642 C650.41975098 640.77941895 650.83950195 639.55883789 651.27197266 638.30126953 C665.76651199 595.67764892 676.19959731 551.64136349 682 507 C682.15307617 505.82244141 682.30615234 504.64488281 682.46386719 503.43164062 C693.19113652 418.33667267 688.47964063 326.24420664 641 220 C640.61875977 219.28005859 640.23751953 218.56011719 639.84472656 217.81835938 C628.64134256 196.81991362 615.29500524 177.37943641 599 160 C597.82706935 158.65125534 596.6598956 157.29747083 595.5 155.9375 C588.85461164 148.32946193 581.66555137 141.50566682 573.76953125 135.2109375 C571.95480999 133.76223196 570.15944774 132.28886012 568.38671875 130.7890625 C520.69897743 90.51941427 457.15111442 72.79160076 395.625 72.75 C394.72327057 72.74932526 393.82154114 72.74865051 392.89248657 72.74795532 C334.85810069 72.8164608 276.8291492 87.21183794 224 111 Z M-332 933 C-331 935 -331 935 -331 935 Z " fill="#1ADBDB" transform="translate(1428,394)"/>
</svg>
